<svg xmlns="http://www.w3.org/2000/svg" width="152.109" height="80" viewBox="0 0 152.109 80">
  <path id="php-brands" d="M76.055,91.693c40.737,0,72.062,17.16,72.062,36.007s-31.349,36.007-72.062,36.007c-40.737,0-72.062-17.16-72.062-36.007S35.342,91.693,76.055,91.693m0-3.993C34.058,87.7,0,105.6,0,127.7s34.058,40,76.055,40,76.055-17.9,76.055-40S118.051,87.7,76.055,87.7ZM51.86,124.491c-1.878,9.626-8.509,8.627-16.661,8.627l3.256-16.78c9.031,0,15.163-.974,13.4,8.152ZM23.149,150.112h8.723l2.068-10.648c9.768,0,15.829.713,21.438-4.54,6.2-5.7,7.819-15.853,3.4-20.939-2.305-2.662-6.013-3.969-11.052-3.969h-16.8ZM67.285,99.346H75.96l-2.068,10.648c7.487,0,14.427-.547,17.778,2.543,3.518,3.232,1.83,7.368-1.973,26.881H80.9c3.66-18.871,4.349-20.44,3.018-21.866-1.283-1.378-4.207-1.093-11.266-1.093l-4.468,22.959H59.513l7.772-40.071Zm52.739,25.146c-1.9,9.768-8.723,8.627-16.661,8.627l3.256-16.78C115.7,116.339,121.783,115.365,120.024,124.491ZM91.313,150.112h8.746l2.068-10.648c10.267,0,15.948.594,21.438-4.54,6.2-5.7,7.819-15.853,3.4-20.939-2.305-2.662-6.013-3.969-11.052-3.969h-16.8Z" transform="translate(0 -87.7)" fill="#fff"/>
</svg>
