<svg xmlns="http://www.w3.org/2000/svg" width="70.928" height="80" viewBox="0 0 70.928 80">
  <path id="node-js-brands" d="M36.148,84.05a6.218,6.218,0,0,1-3.08-.825L23.274,77.43c-1.46-.825-.746-1.111-.27-1.27a19.294,19.294,0,0,0,4.429-2.016.716.716,0,0,1,.73.063l7.525,4.461a.919.919,0,0,0,.9,0l29.32-16.922a.94.94,0,0,0,.444-.794V27.108a.946.946,0,0,0-.46-.81L36.592,9.392a.919.919,0,0,0-.9,0L6.4,26.314a.927.927,0,0,0-.46.81V60.952a.876.876,0,0,0,.46.778l8.033,4.635c4.366,2.175,7.032-.381,7.032-2.969V30a.84.84,0,0,1,.857-.841h3.715a.85.85,0,0,1,.857.841V63.413c0,5.81-3.175,9.144-8.683,9.144-1.7,0-3.032,0-6.747-1.841L3.78,66.286A6.173,6.173,0,0,1,.7,60.937V27.108a6.192,6.192,0,0,1,3.08-5.35L33.068,4.836a6.428,6.428,0,0,1,6.159,0l29.32,16.938a6.173,6.173,0,0,1,3.08,5.35V60.952a6.212,6.212,0,0,1-3.08,5.35L39.228,83.225A6.174,6.174,0,0,1,36.148,84.05ZM59.817,50.7c0-6.334-4.286-8.017-13.287-9.207C37.418,40.284,36.5,39.665,36.5,37.537c0-1.762.778-4.112,7.525-4.112,6.016,0,8.239,1.3,9.16,5.366a.85.85,0,0,0,.825.667h3.81a.829.829,0,0,0,.619-.27.884.884,0,0,0,.222-.651c-.587-7-5.239-10.255-14.636-10.255-8.366,0-13.351,3.524-13.351,9.445,0,6.413,4.969,8.191,12.985,8.985,9.6.937,10.35,2.349,10.35,4.239,0,3.27-2.635,4.667-8.81,4.667-7.763,0-9.461-1.953-10.033-5.81a.84.84,0,0,0-.841-.714H30.528a.837.837,0,0,0-.841.841c0,4.937,2.683,10.826,15.525,10.826,9.271-.016,14.6-3.683,14.6-10.064Z" transform="translate(-0.7 -4.05)" fill="#fff"/>
</svg>
