<svg xmlns="http://www.w3.org/2000/svg" width="91.424" height="80" viewBox="0 0 91.424 80">
  <path id="react-brands" d="M74.675,57.937q-1.446-.482-2.893-.911c.161-.661.3-1.321.446-1.982,2.2-10.642.75-19.2-4.125-22.017-4.7-2.7-12.356.107-20.106,6.857-.768.661-1.518,1.357-2.232,2.053-.482-.464-.982-.929-1.482-1.375-8.125-7.214-16.267-10.249-21.142-7.41-4.678,2.714-6.071,10.767-4.107,20.838.2,1,.411,1.982.661,2.982-1.143.321-2.268.679-3.321,1.054C6.839,61.33,0,66.544,0,71.937,0,77.508,7.285,83.1,17.2,86.489c.8.268,1.607.536,2.428.768-.268,1.071-.5,2.125-.714,3.214-1.875,9.91-.411,17.767,4.268,20.463C28,113.72,36.105,110.863,44,103.953c.625-.554,1.25-1.125,1.875-1.732.786.768,1.607,1.5,2.428,2.214,7.642,6.571,15.2,9.232,19.856,6.535,4.821-2.786,6.393-11.232,4.357-21.517q-.241-1.179-.536-2.411c.571-.161,1.125-.339,1.678-.518,10.3-3.411,17.767-8.928,17.767-14.589C91.424,66.526,84.388,61.277,74.675,57.937ZM50.515,42.778c6.643-5.785,12.839-8.053,15.66-6.428,3.018,1.732,4.178,8.732,2.286,17.928-.125.607-.25,1.2-.411,1.786A91.41,91.41,0,0,0,56.033,54.17a90.217,90.217,0,0,0-7.607-9.482C49.122,44.027,49.8,43.4,50.515,42.778ZM29.856,81.2c.911,1.553,1.839,3.107,2.821,4.625a80.856,80.856,0,0,1-8.285-1.339A83.413,83.413,0,0,1,27.3,76.544c.821,1.571,1.661,3.125,2.553,4.66Zm-5.41-21.481c2.571-.571,5.3-1.036,8.142-1.393-.946,1.482-1.875,3-2.75,4.535-.875,1.518-1.732,3.071-2.536,4.643-1.125-2.661-2.071-5.268-2.857-7.785Zm4.893,12.3c1.179-2.464,2.464-4.875,3.821-7.25S35.98,60.1,37.516,57.83c2.678-.2,5.41-.3,8.2-.3s5.535.107,8.2.3q2.277,3.375,4.339,6.91t3.875,7.214q-1.795,3.7-3.857,7.285c-1.357,2.375-2.8,4.678-4.321,6.964-2.661.2-5.428.286-8.232.286s-5.518-.089-8.142-.25q-2.33-3.4-4.393-6.964c-1.375-2.375-2.643-4.785-3.839-7.25Zm32.248,9.142c.911-1.571,1.768-3.161,2.607-4.768a82.89,82.89,0,0,1,3.018,7.91,78.432,78.432,0,0,1-8.392,1.428c.964-1.5,1.875-3.036,2.768-4.571Zm2.571-13.66c-.839-1.571-1.7-3.143-2.589-4.678q-1.312-2.277-2.732-4.5a82.173,82.173,0,0,1,8.2,1.429A79.025,79.025,0,0,1,64.157,67.508ZM45.748,47.42a78.411,78.411,0,0,1,5.285,6.393c-3.536-.161-7.089-.161-10.624,0C42.158,51.509,43.962,49.366,45.748,47.42ZM25.034,36.474c3-1.75,9.66.75,16.678,6.964.446.393.893.821,1.357,1.25a90.718,90.718,0,0,0-7.66,9.482,94.125,94.125,0,0,0-12,1.857c-.232-.911-.429-1.839-.625-2.768-1.678-8.642-.571-15.16,2.25-16.785ZM20.66,83.543c-.75-.214-1.482-.446-2.214-.7A36.418,36.418,0,0,1,7.2,77.276a8.012,8.012,0,0,1-3.357-5.339c0-3.268,5.643-7.446,13.785-10.285,1.018-.357,2.053-.679,3.089-.982a94.949,94.949,0,0,0,4.375,11.357A97.6,97.6,0,0,0,20.66,83.543Zm20.82,17.5a32.682,32.682,0,0,1-10.071,6.3,7.9,7.9,0,0,1-6.3.232c-2.839-1.643-4.018-7.946-2.411-16.428.2-1,.411-2,.661-2.982a89.329,89.329,0,0,0,12.124,1.75,94.231,94.231,0,0,0,7.714,9.535c-.571.554-1.143,1.089-1.714,1.589ZM45.855,96.7c-1.821-1.964-3.643-4.143-5.41-6.482,1.714.071,3.482.107,5.268.107,1.839,0,3.643-.036,5.428-.125A77.006,77.006,0,0,1,45.855,96.7Zm23.338,5.357a7.936,7.936,0,0,1-2.946,5.589c-2.839,1.643-8.892-.5-15.428-6.107-.75-.643-1.5-1.339-2.268-2.053a88.333,88.333,0,0,0,7.535-9.571,88.026,88.026,0,0,0,12.178-1.875c.179.732.339,1.464.482,2.178a32.551,32.551,0,0,1,.446,11.839Zm3.25-19.2c-.5.161-1,.321-1.518.464a90.709,90.709,0,0,0-4.553-11.392,90.254,90.254,0,0,0,4.375-11.232c.929.268,1.821.554,2.678.839,8.321,2.857,14.16,7.107,14.16,10.357C87.585,75.4,81.353,79.918,72.443,82.865ZM45.712,80.186a8.178,8.178,0,1,0-8.178-8.178,8.177,8.177,0,0,0,8.178,8.178Z" transform="translate(0 -32.012)" fill="#fff"/>
</svg>
